<?xml version="1.0" encoding="utf-8"?>
<!-- Generator: Adobe Illustrator 27.5.0, SVG Export Plug-In . SVG Version: 6.00 Build 0)  -->
<svg version="1.1" id="PRINT" xmlns="http://www.w3.org/2000/svg" xmlns:xlink="http://www.w3.org/1999/xlink" x="0px" y="0px"
	 viewBox="0 0 595.276 841.89" style="enable-background:new 0 0 595.276 841.89;" xml:space="preserve">
<g>
	<g>
		<defs>
			<rect id="SVGID_1_" x="-7.61" y="-8.504" width="610.495" height="858.898"/>
		</defs>
		<clipPath id="SVGID_00000154400302465900060950000012438317950654249356_">
			<use xlink:href="#SVGID_1_"  style="overflow:visible;"/>
		</clipPath>
		
			<rect x="-7.61" y="-8.504" style="clip-path:url(#SVGID_00000154400302465900060950000012438317950654249356_);fill:#6B45F2;" width="610.495" height="858.898"/>
		<g style="clip-path:url(#SVGID_00000154400302465900060950000012438317950654249356_);">
			<g>
				<g>
					<g>
						<path style="fill:#A25ADD;stroke:#450041;stroke-width:1.4818;stroke-miterlimit:10;" d="M56.965,506.431
							c-4.998-8.628-15.192-12.818-21.847-20.257c-4.908,12.064-2.499,26.759,6.008,36.646c4.193,4.872,15.423,17.015,18.524,6.643
							C61.731,522.504,60.576,512.664,56.965,506.431z"/>
						<path style="fill:none;stroke:#450041;stroke-width:1.4818;stroke-miterlimit:10;" d="M-33.271,656.451
							C29.46,623.739,71.173,554.578,70.665,484.122"/>
						<path style="fill:#A25ADD;stroke:#450041;stroke-width:1.4818;stroke-miterlimit:10;" d="M79.593,494.085
							c3.149-4.828,6.316-9.691,8.509-15.016c7.189-17.453,1.894-39.63-13.359-50.835c-2.815-2.068-6.174-3.825-9.651-3.43
							c-3.861,0.439-6.925,3.411-9.238,6.517c-6.762,9.077-9.772,20.676-9.094,31.954c0.678,11.277,4.912,22.207,11.337,31.523
							c1.957,2.837,7.56,13.591,11.073,13.251C73.065,507.672,77.713,496.968,79.593,494.085z"/>
						<path style="opacity:0.56;fill:#C3337C;" d="M47.477,454.275c1.36,5.268,2.771,10.652,5.826,15.163
							c3.055,4.511,8.126,8.057,13.588,7.803c5.652-0.263,10.498-4.564,12.905-9.658c2.407-5.094,2.793-10.88,2.864-16.508
							c0.043-3.4-3.041-14.095-1.966-17.364c10.561,12.018,13.565,30.416,7.41,45.359c-2.193,5.325-5.361,10.188-8.509,15.016
							c-1.881,2.884-6.528,13.587-10.423,13.964c-3.513,0.34-9.116-10.414-11.073-13.251c-6.425-9.316-10.659-20.246-11.337-31.523
							c-0.181-3.012-0.09-6.047,0.256-9.05C47.169,454.236,47.323,454.241,47.477,454.275z"/>
						<path style="fill:none;stroke:#450041;stroke-width:1.4818;stroke-miterlimit:10;" d="M58.681,552.542
							c1.899-15.188-13.811-54.018-23.857-65.609"/>
						<g>
							<path style="fill:#A25ADD;stroke:#450041;stroke-width:1.4818;stroke-miterlimit:10;" d="M107.608,522.735
								c5.804-8.863,6.865-19.894,7.656-30.443c-6.644,2.009-13.356,4.047-19.36,7.518c-7.42,4.29-13.56,10.739-17.465,18.341
								c-2.199,4.282-3.689,8.884-5.17,13.462c-1.177,3.638-2.899,7.516-3.372,11.265
								C82.422,544.411,101.006,532.815,107.608,522.735z"/>
							<path style="opacity:0.56;fill:#C3337C;" d="M69.897,542.878c0.473-3.749,2.196-7.627,3.372-11.265
								c1.481-4.578,2.971-9.179,5.17-13.462c3.904-7.602,10.045-14.051,17.465-18.341c1.083-0.626,2.195-1.192,3.319-1.733
								c-4.133,3.232-8.328,6.815-9.849,11.786c-1.604,5.242,1.529,12.21,7.036,12.365c2.348,0.066,4.558-1.082,6.476-2.432
								c4.16-2.928,7.437-7.023,9.537-11.631c1.244-2.73,1.461-6.148,2.252-9.092c-0.873,8.368-2.499,16.686-7.066,23.661
								C101.006,532.815,82.422,544.411,69.897,542.878z"/>
							<path style="fill:none;stroke:#450041;stroke-width:1.4818;stroke-miterlimit:10;" d="M57.818,553.064
								c10.111-7.918,20.259-15.869,29.179-25.096c7.338-7.59,22.154-26.432,27.586-35.47"/>
							<path style="fill:none;stroke:#450041;stroke-width:1.4818;stroke-miterlimit:10;" d="M77.302,536.977
								c3.679-6.17,4.489-16.151,3.777-23.291"/>
							<path style="fill:none;stroke:#450041;stroke-width:1.4818;stroke-miterlimit:10;" d="M90.225,503.716
								c2.25,6.859,2.351,17.449-2.146,23.109c4.965-3.114,15.199-5.523,20.981-6.531"/>
							<path style="fill:none;stroke:#450041;stroke-width:1.4818;stroke-miterlimit:10;" d="M77.72,536.429
								c5.858-2.817,15.184-3.897,21.606-4.937"/>
						</g>
						<g>
							<path style="fill:#A25ADD;stroke:#450041;stroke-width:1.4818;stroke-miterlimit:10;" d="M96.313,574.504
								c8.238-6.688,12.62-16.876,16.597-26.686c-6.943-0.096-13.961-0.184-20.741,1.307c-8.38,1.843-16.201,6.129-22.244,12.19
								c-3.404,3.414-6.23,7.347-9.04,11.261c-2.233,3.11-5.059,6.283-6.655,9.712C65.695,587.536,86.943,582.11,96.313,574.504z"/>
							<path style="fill:none;stroke:#450041;stroke-width:1.4818;stroke-miterlimit:10;" d="M39.611,588.339
								c12.053-4.485,24.15-8.991,35.468-15.083c9.31-5.011,29.135-18.08,37.073-25.047"/>
							<path style="fill:none;stroke:#450041;stroke-width:1.4818;stroke-miterlimit:10;" d="M64.646,578.378
								c5.391-4.766,7.443-13.334,8.947-20.351"/>
							<path style="fill:none;stroke:#450041;stroke-width:1.4818;stroke-miterlimit:10;" d="M85.182,551.358
								c0.047,7.215-3.444,17.289-9.458,21.322c5.682-1.465,18.124-2.085,23.94-1.296"/>
							<path style="fill:none;stroke:#450041;stroke-width:1.4818;stroke-miterlimit:10;" d="M64.646,578.378
								c6.442-0.911,14.929,0.908,21.365,1.859"/>
						</g>
						<g>
							<path style="fill:#A25ADD;stroke:#450041;stroke-width:1.4818;stroke-miterlimit:10;" d="M35.097,538.9
								c-4.473-9.597-13.309-16.343-21.878-22.607c-1.813,6.668-3.638,13.409-3.866,20.313c-0.281,8.532,1.955,17.132,6.361,24.458
								c2.482,4.127,5.612,7.825,8.727,11.502c2.476,2.922,4.866,6.432,7.809,8.82C40.203,571.638,40.182,549.815,35.097,538.9z"/>
							<path style="fill:none;stroke:#450041;stroke-width:1.4818;stroke-miterlimit:10;" d="M34.522,596.975
								c-1.382-12.727-2.773-25.502-5.902-37.919c-2.574-10.214-6.318-20.136-11.136-29.513"/>
							<path style="fill:none;stroke:#450041;stroke-width:1.4818;stroke-miterlimit:10;" d="M31.152,572.01
								c-3.306-6.376-11.601-12.85-18.062-16.038"/>
							<path style="fill:none;stroke:#450041;stroke-width:1.4818;stroke-miterlimit:10;" d="M9.559,542.527
								c7.038,1.742,16.222,8.969,18.66,15.765c-0.019-5.839,2.829-17.396,5.039-22.805"/>
							<path style="fill:none;stroke:#450041;stroke-width:1.4818;stroke-miterlimit:10;" d="M30.907,571.367
								c0.708-6.434,4.6-15.873,7.121-21.84"/>
						</g>
						<path style="fill:none;stroke:#450041;stroke-width:1.4818;stroke-miterlimit:10;" d="M69.756,502.41
							c5.168-7.419,10.401-14.965,13.299-23.519c3.947-11.654,7.148-28.264,1.876-39.387"/>
						<path style="fill:none;stroke:#450041;stroke-width:1.4818;stroke-miterlimit:10;" d="M69.129,508.847
							c2.575-25.444,1.405-59.048-4.036-84.042"/>
						<path style="fill:none;stroke:#450041;stroke-width:1.4818;stroke-miterlimit:10;" d="M77.391,430.376
							c5.071,13.954-0.84,37.214-6.737,50.843c-8.468-12.738-15.177-34.631-14.8-49.898"/>
						<path style="fill:none;stroke:#450041;stroke-width:1.4818;stroke-miterlimit:10;" d="M70.022,500.804
							c-0.696-0.51-3.609-5.044-5.245-7.865c-7.751-13.368-16.106-32.172-15.928-47.603"/>
						<path style="fill:none;stroke:#450041;stroke-width:1.4818;stroke-miterlimit:10;" d="M54.202,526.547
							c1.761-3.022,2.485-6.575,2.411-10.068c-0.074-3.492-0.238-9.414-1.44-12.696"/>
						<path style="fill:none;stroke:#450041;stroke-width:1.4818;stroke-miterlimit:10;" d="M49.98,515.55
							c0.826-5.853-0.7-14.651-3.524-19.851"/>
						<path style="fill:none;stroke:#450041;stroke-width:1.4818;stroke-miterlimit:10;" d="M54.018,526.702
							c-5.64-0.805-13.633-5.037-16.902-9.68"/>
						<path style="fill:none;stroke:#450041;stroke-width:1.4818;stroke-miterlimit:10;" d="M49.98,515.55
							c-6.467-2.934-14.86-12.034-17.297-18.677"/>
					</g>
				</g>
			</g>
			<path style="opacity:0.56;fill:#C3337C;" d="M46.481,513.761c10.698-2.853,1.415-13.675,0.417-19.045
				c1.409,1.312,2.769,2.67,3.995,4.157c0.77,0.933,1.726,1.67,2.772,2.116c1.49,2.045,2.753,4.245,3.716,6.385
				c3.294,7.324,3.822,15.841,1.457,23.511c-0.324,1.051-0.821,2.211-1.864,2.572c-0.864,0.299-1.806-0.062-2.635-0.448
				c-13.465-6.266-22.484-20.966-21.929-35.744c1.906,3.48,2.59,7.516,4.481,11.004C38.784,511.756,42.634,514.787,46.481,513.761z"
				/>
			<path style="opacity:0.56;fill:#C3337C;" d="M32.202,543.663c-1.705,4.705-6.113,8.333-11.079,9.116
				c-4.129,0.652-8.936-0.997-10.588-4.818c2.788,13.114,12.534,23.497,21.88,33.154c3.157-2.94,4.252-7.418,5.011-11.654
				c0.784-4.374,1.373-8.801,1.32-13.244c-0.101-8.519-2.59-17.45-7.444-24.52C32.712,535.661,33.7,539.528,32.202,543.663z"/>
			<path style="opacity:0.56;fill:#C3337C;" d="M96.971,564.436c-3.771-0.579-6.609-4.446-6.317-8.231
				c0.292-3.784,3.435-7.075,7.164-7.878c-5.266-0.136-10.272,2.089-15.026,4.346c-3.2,1.519-6.421,3.098-9.121,5.385
				c-2.468,2.091-4.421,4.706-6.351,7.296c-3.914,5.253-7.829,10.507-11.743,15.76c-0.184,0.247-0.376,0.517-0.377,0.824
				c-0.002,0.635,0.75,0.961,1.371,1.112c10.401,2.519,21.697,1.195,31.224-3.661c6.725-3.427,16.185-10.467,18.45-17.915
				C102.897,562.14,100.761,565.017,96.971,564.436z"/>
		</g>
		<g style="clip-path:url(#SVGID_00000154400302465900060950000012438317950654249356_);">
			
				<rect x="-7.61" y="781.417" style="fill:#C13ECA;stroke:#450041;stroke-width:1.4818;stroke-miterlimit:10;" width="610.495" height="11.898"/>
			
				<line style="fill:none;stroke:#450041;stroke-width:1.4818;stroke-miterlimit:10;" x1="356.56" y1="784.758" x2="408.427" y2="784.758"/>
			
				<line style="fill:none;stroke:#450041;stroke-width:1.4818;stroke-miterlimit:10;" x1="518.815" y1="786.15" x2="542.559" y2="786.15"/>
			
				<line style="fill:none;stroke:#450041;stroke-width:1.4818;stroke-miterlimit:10;" x1="5.667" y1="785.106" x2="99.326" y2="785.106"/>
			
				<line style="fill:none;stroke:#450041;stroke-width:1.4818;stroke-miterlimit:10;" x1="161.326" y1="784.758" x2="167.922" y2="784.758"/>
			
				<line style="fill:none;stroke:#450041;stroke-width:1.4818;stroke-miterlimit:10;" x1="282.688" y1="785.106" x2="310.421" y2="785.106"/>
			
				<line style="fill:none;stroke:#450041;stroke-width:1.4818;stroke-miterlimit:10;" x1="442.304" y1="785.106" x2="451.632" y2="785.106"/>
		</g>
		<g style="clip-path:url(#SVGID_00000154400302465900060950000012438317950654249356_);">
			<path style="opacity:0.28;fill:#5733D1;" d="M613.711-18.992H207.163c-0.114,3.71-0.125,7.556,0,11.585
				c0.152,4.943,0.131,9.901,0.005,14.845c-4.489,176.985,229.399-12.354,312.613,72.749c32.048,29.088,37.357,82.759,75.401,103.49
				c5.565,2.399,11.825,4.206,18.529,5.428V-18.992z"/>
			<path style="opacity:0.28;fill:#5733D1;" d="M613.711,728.106c-119.716-36.742-368.204,94.061-466.961-17.759
				C94.058,657.408,89.625,564.415,25.859,525.361c-13.365-6.58-29.264-11.218-46.463-13.861v347.789h634.314V728.106z"/>
			<polyline style="fill:#D18B6E;stroke:#450041;stroke-width:1.5074;stroke-miterlimit:10;" points="613.514,850.394 
				613.514,790.823 -18.239,790.823 -18.239,850.394 			"/>
			
				<line style="fill:none;stroke:#450041;stroke-width:1.4818;stroke-miterlimit:10;" x1="315.311" y1="809.662" x2="360.326" y2="809.662"/>
			
				<line style="fill:none;stroke:#450041;stroke-width:1.4818;stroke-miterlimit:10;" x1="406.758" y1="807.072" x2="416.76" y2="807.072"/>
			
				<line style="fill:none;stroke:#450041;stroke-width:1.4818;stroke-miterlimit:10;" x1="385.325" y1="818.726" x2="416.962" y2="818.726"/>
			
				<line style="fill:none;stroke:#450041;stroke-width:1.4818;stroke-miterlimit:10;" x1="450.338" y1="808.367" x2="463.197" y2="808.367"/>
			
				<line style="fill:none;stroke:#450041;stroke-width:1.4818;stroke-miterlimit:10;" x1="79.55" y1="805.777" x2="122.564" y2="805.777"/>
			
				<line style="fill:none;stroke:#450041;stroke-width:1.4818;stroke-miterlimit:10;" x1="90.267" y1="826.496" x2="93.839" y2="826.496"/>
			
				<line style="fill:none;stroke:#450041;stroke-width:1.4818;stroke-miterlimit:10;" x1="47.401" y1="831.676" x2="63.848" y2="831.676"/>
			
				<line style="fill:none;stroke:#450041;stroke-width:1.4818;stroke-miterlimit:10;" x1="132.418" y1="830.381" x2="157.433" y2="830.381"/>
			
				<line style="fill:none;stroke:#450041;stroke-width:1.4818;stroke-miterlimit:10;" x1="564.646" y1="821.316" x2="576.276" y2="821.316"/>
		</g>
		<g style="clip-path:url(#SVGID_00000154400302465900060950000012438317950654249356_);">
			<g>
				<path style="fill:#D18B6E;stroke:#450041;stroke-width:1.4818;stroke-miterlimit:10;" d="M76.267,287.797
					c-15.308,0.792-28.92,14.18-29.89,29.398c-0.464,7.286,1.62,14.463,2.63,21.694c1.01,7.232,0.754,15.2-3.697,21.005
					c3.819-2.358,7.639-4.716,11.458-7.074c-6.852,5.269-5.662,16.41-0.409,23.259s13.277,10.904,20.152,16.143
					c6.875,5.239,13.13,12.978,12.121,21.534c16.819-17.392,21.309-45.444,10.751-67.172c-4.637-9.544-11.739-17.674-17.144-26.809
					c-5.406-9.135-9.129-20.143-6.069-30.297"/>
				<path style="fill:none;stroke:#450041;stroke-width:1.4818;stroke-miterlimit:10;" d="M53.9,355.236
					c8.317-5.386,12.105-15.651,13.188-25.465c0.579-5.248,0.553-10.611,2.039-15.679c1.486-5.068,4.875-9.978,9.949-11.527"/>
				<path style="fill:none;stroke:#450041;stroke-width:1.4818;stroke-miterlimit:10;" d="M89.199,412.636
					c7.257-14.842,8.776-32.374,4.177-48.232c-3.493-12.045-10.365-23.188-11.698-35.653c-0.641-5.994,0.467-12.874,5.396-16.381"/>
				<g>
					<g>
						<path style="fill:#FFB4E7;stroke:#450041;stroke-width:1.4818;stroke-miterlimit:10;" d="M240.628,396.284
							c-13.263-8.396-66.317-39.582-66.317-39.582l0,0l-6.383-13.094l-4.428-9.082c23.886,5.857,66.152-8.908,58.532-40.605
							c-2.06-8.568-17.811-33.107-22.253-41.363c-17.767-33.025-59.083-45.469-92.281-27.795
							C74.3,242.435,61.79,283.534,79.556,316.559c12.517,23.266,34.451,35.333,58.496,35.464l1.586,12.816
							c0,0-6.927,17.577-0.295,36.768c6.632,19.191,42.805,56.449,42.805,56.449l-3.617,7.933l57.274,33.448
							c15.675-32.985,4.823-73.167,4.823-73.167C251.48,416.674,253.892,404.68,240.628,396.284z"/>
						<path style="opacity:0.56;fill:#C3337C;" d="M196.772,257.403c-6.707,4.182-13.457,8.296-20.248,12.342
							c3.879-5.085,8.339-9.727,13.262-13.819c1.575-1.309,4.161-4.286,6.44-3.446C198.546,253.333,198.735,256.179,196.772,257.403
							z"/>
						<path style="opacity:0.56;fill:#C3337C;" d="M184.556,327.842c-15.74-0.522-30.277-8.307-43.381-16.998
							c6.783,15.141,14.521,29.858,23.152,44.036c1.044-6.826,0.52-13.884-1.522-20.482c1.484,4.796,25.556-0.562,28.774-1.646
							c7.016-2.362,20.89-5.984,24.109-13.073C207.508,325.317,194.67,328.177,184.556,327.842z"/>
						<path style="fill:#450041;" d="M199.564,267.236c1.351,2.618,1.03,5.465-0.719,6.358s-4.261-0.506-5.613-3.124
							c-1.351-2.618-1.03-5.465,0.719-6.358S198.213,264.618,199.564,267.236z"/>
						<g>
							<g>
								<path style="fill:#FFB4E7;stroke:#450041;stroke-width:1.4818;stroke-miterlimit:10;" d="M127.16,303.611
									c0,0-18.988,2.341-11.36,22.184c5.883,15.303,28.231,15.115,36.395,3.826"/>
								<path style="opacity:0.56;fill:#C3337C;" d="M133.999,315.095c-3.743-0.77-12.975,0.88-7.171,7.129
									c5.804,6.249,12.567,5.862,15.718,3.34S142.488,316.84,133.999,315.095z"/>
								<path style="fill:none;stroke:#450041;stroke-width:1.4818;stroke-miterlimit:10;" d="M127.68,315.456
									c0.537,0.116,7.623-3.63,14.738,4.223"/>
								<path style="fill:none;stroke:#450041;stroke-width:1.4818;stroke-miterlimit:10;" d="M204.493,292.947
									c0,0,8.628,2.38,13.983-6.546"/>
								<path style="fill:#EE61E1;stroke:#450041;stroke-width:1.4818;stroke-miterlimit:10;" d="M205.208,262.191
									c0,0,6.35,5.231,13.194,7.835c6.845,2.604,1.913,12.728-3.56,9.254C209.369,275.807,205.208,262.191,205.208,262.191z"/>
							</g>
							<path style="opacity:0.56;fill:#C3337C;" d="M217.518,274.386c0.87,0.279,1.823,0.491,2.444,1.158
								c1.011,1.086,0.575,3.022-0.651,3.862s-2.927,0.719-4.25,0.041c-1.323-0.678-2.336-1.826-3.24-3.001
								c-2.577-3.35-5.809-8.326-5.989-12.586C210.298,266.792,211.671,272.509,217.518,274.386z"/>
							<path style="fill:#D18B6E;stroke:#450041;stroke-width:1.4818;stroke-miterlimit:10;" d="M120.775,306.415
								c2.373-2.039,5.797-2.165,8.411-0.442c2.428,1.602,16.636,10.237,15.469,0.194c-2.066-17.781-34.68-52.992-34.68-52.992
								s-2.542-24.547,40.1-35.648c0,0-38.128-12.055-64.839,21.37c-12.998,16.265-18.764,37.315-15.974,57.907
								c2.922,21.57,15.038,48.178,55.881,53.972l8.171-13.088c0,0-9.998-1.643-15.49-9.149
								C112.786,321.656,114.299,311.98,120.775,306.415L120.775,306.415z"/>
						</g>
						<path style="fill:#5733D1;stroke:#450041;stroke-width:1.4818;stroke-miterlimit:10;" d="M193.901,251.653
							c-1.445,0.086-2.694,0.994-3.822,1.897c-2.517,2.014-4.905,4.186-7.147,6.499c-2.778,2.865-5.383,6.037-6.696,9.797
							c4.622-4.087,9.364-8.04,14.216-11.854c1.193-0.938,2.435-1.888,3.903-2.288C197.57,254.831,197.497,251.44,193.901,251.653z"
							/>
					</g>
					<path style="fill:none;stroke:#450041;stroke-width:1.4818;stroke-miterlimit:10;" d="M143.265,302.156
						c-3.09-8.814-12.785-14.357-22.166-14.117c-9.38,0.24-18.144,5.5-24.163,12.661c-8.506,10.119-11.846,25.311-5.365,36.819"/>
					<path style="fill:none;stroke:#450041;stroke-width:1.4818;stroke-miterlimit:10;" d="M125.085,271.114
						c-2.978-3.103-6.528-4.502-10.836-4.701c-4.308-0.199-8.591,0.878-12.601,2.457c-15.502,6.104-27.236,18.915-30.746,35.127"/>
					<path style="fill:none;stroke:#450041;stroke-width:1.4818;stroke-miterlimit:10;" d="M110.06,247.743
						c-5.675-4.76-13.856-5.371-21.158-4.045c-3.89,0.706-7.957,2.075-10.31,5.237"/>
					<path style="fill:none;stroke:#450041;stroke-width:1.4818;stroke-miterlimit:10;" d="M125.787,227.248
						c-0.89-2.693-2.82-5.031-5.302-6.424c-2.482-1.393-5.492-1.827-8.269-1.193"/>
				</g>
				<path style="fill:#FFFFD6;stroke:#450041;stroke-width:1.4818;stroke-miterlimit:10;" d="M222.521,448.759
					c7.147-0.353,14.284-0.714,21.427-0.631c-0.906-12.911-3.319-21.858-3.319-21.858c10.852-9.596,13.264-21.59,0-29.987
					c-11.884-7.523-55.688-33.328-64.673-38.615c4.122,6.914,7.066,14.484,8.177,22.174c1.88,13.009-4.853,29.531-19.971,30.235
					c-17.703,0.825-24.327-16.496-27.159-34.031c-0.9,6.791-0.971,15.974,2.342,25.56c5.107,14.781,27.723,40.26,37.856,51.2
					C192.226,450.733,207.352,449.509,222.521,448.759z"/>
				<path style="fill:#FFB4E7;stroke:#450041;stroke-width:1.4818;stroke-miterlimit:10;" d="M178.531,465.989
					c0,0-17.082,8.859-25.12,28.85c-8.039,19.991-2.412,30.786-2.412,30.786s-18.087,68.769-27.733,107.552
					c0,0-18.89,30.786-21.302,52.776c-2.412,21.99,12.862,61.279,9.646,70.621c-3.215,9.343-20.096,18.016-11.656,27.335
					c0,0,58.279,0,70.739,0c12.46,0,6.431-3.199,0.402-5.198c-6.029-1.999-31.214-7.89-34.296-22.137
					c-3.083-14.247,10.181-77.018,25.454-110.603c15.273-33.585,61.494-107.952,73.552-146.534L178.531,465.989z"/>
				<path style="fill:#5733D1;stroke:#450041;stroke-width:1.4818;stroke-miterlimit:10;" d="M136.355,751.124
					c-0.044-20.702,12.106-74.823,25.899-105.153c15.273-33.585,61.494-107.951,73.552-146.534l-57.274-33.448
					c0,0-17.082,8.859-25.12,28.85C145.373,514.83,151,525.626,151,525.626s-18.087,68.769-27.733,107.552
					c0,0-18.89,30.786-21.302,52.776c-2.08,18.964,8.984,50.778,10.008,65.171H136.355z"/>
				<path style="fill:#FFB4E7;stroke:#450041;stroke-width:1.4818;stroke-miterlimit:10;" d="M157.028,401.607
					c-9.431-2.36-20.9-27.513-29.742-43.106c-8.842-15.593-32.958-70.368-32.958-70.368l-43.182-60.885l-7.888-1.649
					c-6.28-1.349-13.665-4.398-16.479-8.796c-2.813-4.398-6.029-18.392-8.44-21.191s4.019-8.396,9.646,3.598l6.029,5.597
					c0,0-8.107-23.39-9.998-28.837c-1.891-5.447,4.07-8.634,8.491,1.361l6.194,10.701c0,0-16.343-26.255-10.917-29.604
					c4.229-2.61,14.067,15.993,19.292,25.189c0,0-6.23-12.644-3.014-13.044c3.215-0.4,26.125,29.037,28.938,37.033
					c0,0,41.424,48.94,45.041,56.137c3.617,7.197,47.829,91.559,55.867,108.751"/>
				<path style="fill:none;stroke:#450041;stroke-width:1.4818;stroke-miterlimit:10;" d="M214.365,499.38
					c-5.026,9.156-17.186,13.699-27.029,10.097"/>
				<path style="fill:none;stroke:#450041;stroke-width:1.4818;stroke-miterlimit:10;" d="M154.658,535.217
					c0.85,8.258,1.701,16.516,2.551,24.775"/>
				<path style="fill:none;stroke:#450041;stroke-width:1.4818;stroke-miterlimit:10;" d="M129.95,632.005
					c0.246,4.869-2.261,9.785-6.356,12.462"/>
				<path style="fill:none;stroke:#450041;stroke-width:1.4818;stroke-miterlimit:10;" d="M196.419,393.132
					c-4.761,10.161-11.116,19.581-18.766,27.813"/>
				<path style="fill:none;stroke:#450041;stroke-width:1.4818;stroke-miterlimit:10;" d="M180.331,444.002
					c5.628-0.795,11.255-1.59,16.883-2.385"/>
				<path style="fill:none;stroke:#450041;stroke-width:1.4818;stroke-miterlimit:10;" d="M235.056,425.612
					c-3.488-3.194-6.976-6.388-10.463-9.581"/>
			</g>
			<path style="opacity:0.56;fill:#C3337C;" d="M191.809,401.643c0.285,4.439-5.716,7.051-9.847,5.349
				c-4.131-1.702-6.579-5.873-8.732-9.772c-10.942-19.816-21.884-39.633-32.827-59.449c-11.447-20.73-22.927-41.514-36.706-60.788
				c-16.406-22.951-35.948-43.587-51.842-66.892c-14.625-21.443-8.59-20.958-16.19-45.518c-3.129-4.388-6.038-7.283-7.882-6.145
				c-3.5,2.161,2.057,13.848,6.443,21.875l-1.72-2.972c-4.421-9.995-10.382-6.808-8.491-1.361
				c1.891,5.447,9.998,28.837,9.998,28.837l-6.029-5.597c-5.627-11.995-12.058-6.397-9.646-3.598
				c2.412,2.799,5.627,16.792,8.44,21.19c2.813,4.398,10.199,7.447,16.479,8.796l7.888,1.649l22.353,32.345
				c-3.549,9.437-5.232,19.538-4.874,29.687c-11.944,3.966-21.444,15.3-22.248,27.916c-0.464,7.286,1.62,14.463,2.63,21.694
				c1.01,7.232,0.754,15.2-3.697,21.005c3.01-1.858,6.019-3.716,9.029-5.575l-0.438,0.917c0.445-0.288,0.871-0.598,1.291-0.913
				c-5.018,5.671-3.632,15.498,1.167,21.755c5.253,6.849,13.277,10.904,20.152,16.143c6.875,5.239,13.13,12.978,12.121,21.534
				c16.819-17.392,21.309-45.444,10.751-67.172c-0.916-1.885-1.947-3.704-3.024-5.498c7.045,4.287,15.814,7.576,26.692,9.354
				c1.617,3.225,3.063,5.994,4.235,8.061c2.988,5.269,6.276,11.629,9.684,17.833c-0.207,1.621-0.371,3.363-0.448,5.222
				c-0.004,0.106-0.001,0.221-0.005,0.327c-0.032,0.882-0.052,1.778-0.043,2.703c0.003,0.276,0.025,0.568,0.031,0.848
				c0.019,0.772,0.035,1.544,0.088,2.342c0.02,0.313,0.065,0.641,0.091,0.958c0.064,0.781,0.124,1.559,0.225,2.359
				c0.075,0.597,0.191,1.212,0.288,1.818c0.086,0.537,0.151,1.065,0.256,1.609c0.12,0.627,0.287,1.266,0.434,1.901
				c0.124,0.538,0.224,1.07,0.368,1.613c0.313,1.182,0.674,2.374,1.089,3.573c0.285,0.824,0.643,1.693,1.031,2.579
				c0.092,0.21,0.184,0.419,0.281,0.632c0.404,0.884,0.842,1.787,1.334,2.72c0.054,0.102,0.115,0.208,0.17,0.31
				c0.461,0.863,0.96,1.746,1.486,2.644c0.139,0.237,0.276,0.473,0.419,0.711c0.581,0.971,1.189,1.955,1.834,2.955
				c0.12,0.186,0.247,0.374,0.368,0.561c0.574,0.881,1.169,1.77,1.784,2.667c0.166,0.243,0.329,0.484,0.498,0.727
				c0.708,1.02,1.436,2.046,2.185,3.078c0.176,0.242,0.356,0.485,0.534,0.727c0.648,0.884,1.307,1.769,1.977,2.655
				c0.176,0.233,0.349,0.465,0.527,0.698c0.787,1.032,1.585,2.061,2.392,3.086c0.208,0.265,0.417,0.527,0.626,0.791
				c0.708,0.894,1.42,1.782,2.134,2.664c0.151,0.186,0.3,0.373,0.451,0.558c0.828,1.017,1.656,2.02,2.483,3.013
				c0.211,0.254,0.42,0.503,0.631,0.754c0.77,0.919,1.536,1.827,2.295,2.717c0.075,0.088,0.151,0.179,0.226,0.267
				c0.839,0.982,1.663,1.935,2.478,2.87c0.173,0.199,0.343,0.395,0.515,0.591c1.657,1.897,3.241,3.679,4.716,5.316
				c0.101,0.112,0.2,0.222,0.3,0.333c1.541,1.708,2.948,3.243,4.175,4.568c0.002,0.002,0.004,0.004,0.005,0.006
				c3.024,3.265,4.949,5.249,4.949,5.249l-3.617,7.933c0,0-17.082,8.859-25.12,28.85c-8.038,19.991-2.411,30.786-2.411,30.786
				s-18.087,68.769-27.733,107.552c0,0-4.151,6.765-8.809,16.217c-0.621,1.26-1.251,2.568-1.882,3.914
				c-0.315,0.673-0.631,1.356-0.945,2.047c-1.258,2.764-2.5,5.661-3.657,8.614c-0.289,0.738-0.573,1.48-0.851,2.224
				c-0.555,1.488-1.085,2.985-1.58,4.482c-0.248,0.748-0.487,1.496-0.717,2.243c-1.378,4.481-2.409,8.913-2.861,13.036
				c0,0,0,0,0,0.001c-0.118,1.081-0.183,2.214-0.22,3.373c-0.006,0.183-0.016,0.362-0.019,0.546
				c-0.024,1.112-0.012,2.257,0.028,3.428c0.008,0.234,0.018,0.469,0.029,0.704c0.052,1.181,0.128,2.383,0.236,3.611
				c0.017,0.188,0.038,0.38,0.056,0.569c0.111,1.181,0.243,2.378,0.396,3.592c0.02,0.16,0.037,0.317,0.058,0.477
				c0.164,1.258,0.354,2.532,0.557,3.815c0.05,0.315,0.098,0.628,0.15,0.943c0.2,1.221,0.414,2.449,0.64,3.682
				c0.07,0.379,0.142,0.757,0.213,1.137c0.216,1.143,0.438,2.288,0.671,3.433c0.095,0.468,0.192,0.933,0.289,1.401
				c0.179,0.863,0.361,1.724,0.545,2.583c0.237,1.104,0.476,2.197,0.719,3.29c0.074,0.334,0.148,0.67,0.222,1.003
				c2.436,10.894,4.973,21.04,5.438,27.58c0.163,2.296,0.08,4.165-0.362,5.451c-3.215,9.343-20.096,18.016-11.656,27.335
				c0,0,17.916,0,36.005,0c1.796-15.231-8.001-29.815-11.905-44.956c-7.958-30.865,8.881-61.885,18.725-92.207
				c7.41-22.827,10.957-46.889,10.448-70.871c2.69,4.432,5.811,8.604,9.307,12.439c12.066-21.955,7.495-50.647,21.529-71.413
				c7.787-11.522,20.751-19.597,25.705-32.577C220.048,457.392,190.444,430.421,191.809,401.643z"/>
			<path style="opacity:0.56;fill:#C3337C;" d="M242.385,413.873c-5.907,0.813-11.861-1.051-17.302-3.478
				c-0.408-0.182-0.855-0.371-1.287-0.26c-1.071,0.276-0.909,1.854-0.395,2.828c4.185,7.925,14.91,11.227,17.958,19.65
				c0.282-2.303,0.067-4.666-0.626-6.882c0.107,0.344,6.024-6.928,6.459-7.878c1.397-3.053,2.29-6.853,1.583-10.126
				C247.871,411.299,246.274,413.338,242.385,413.873z"/>
		</g>
		<g style="clip-path:url(#SVGID_00000154400302465900060950000012438317950654249356_);">
			<g>
				<g>
					<g>
						<path style="fill:#A25ADD;stroke:#450041;stroke-width:1.4818;stroke-miterlimit:10;" d="M534.573,67.384
							c-10.785,2.89-18.247,12.624-28.218,17.631c11.671,8.721,28.291,10.347,41.446,4.054c6.483-3.101,22.863-11.669,12.508-17.968
							C553.362,66.876,542.364,65.296,534.573,67.384z"/>
						<path style="fill:none;stroke:#450041;stroke-width:1.4818;stroke-miterlimit:10;" d="M671.343,207.161
							c-17.488-76.663-80.508-141.223-157.028-160.864"/>
						<path style="fill:#A25ADD;stroke:#450041;stroke-width:1.4818;stroke-miterlimit:10;" d="M527.673,39.573
							c-4.331-4.761-8.695-9.551-13.839-13.43c-16.86-12.713-42.417-13.385-58.933-0.234c-3.048,2.427-5.915,5.527-6.483,9.37
							c-0.631,4.267,1.713,8.405,4.417,11.777c7.902,9.854,19.613,16.407,32.033,18.91c12.419,2.504,25.48,1.093,37.419-3.13
							c3.636-1.286,16.899-4.215,17.536-8.081C540.531,50.468,530.26,42.417,527.673,39.573z"/>
						<path style="opacity:0.56;fill:#C3337C;" d="M475.317,62.619c6.1,0.051,12.341,0.08,18.106-1.905
							c5.765-1.985,11.062-6.409,12.352-12.34c1.335-6.138-1.94-12.569-6.772-16.61c-4.832-4.041-10.994-6.114-17.075-7.802
							c-3.674-1.02-16.151-0.776-19.385-2.866c16.053-7.886,36.857-5.837,51.292,5.047c5.144,3.878,9.508,8.669,13.839,13.43
							c2.587,2.843,12.858,10.895,12.151,15.182c-0.638,3.866-13.9,6.795-17.536,8.081c-11.939,4.223-25,5.634-37.419,3.13
							c-3.317-0.669-6.58-1.635-9.737-2.867C475.187,62.938,475.236,62.774,475.317,62.619z"/>
						<path style="fill:none;stroke:#450041;stroke-width:1.4818;stroke-miterlimit:10;" d="M585.05,78.754
							c-15.919-6.389-62.513-0.662-77.956,6.794"/>
						<g>
							<path style="fill:#A25ADD;stroke:#450041;stroke-width:1.4818;stroke-miterlimit:10;" d="M566.757,17.731
								c-7.945-8.766-19.599-13.063-30.807-16.934c0.274,7.702,0.56,15.486,2.603,22.921c2.525,9.188,7.756,17.623,14.878,23.989
								c4.012,3.586,8.573,6.503,13.111,9.403c3.607,2.304,7.316,5.263,11.245,6.845C583.037,50.958,575.791,27.701,566.757,17.731z
								"/>
							<path style="opacity:0.56;fill:#C3337C;" d="M577.787,63.954c-3.929-1.581-7.638-4.54-11.245-6.844
								c-4.539-2.9-9.099-5.817-13.111-9.403c-7.122-6.367-12.353-14.801-14.878-23.989c-0.368-1.341-0.663-2.696-0.927-4.057
								c2.32,5.359,5.002,10.886,9.954,13.942c5.223,3.223,13.674,1.857,15.42-4.005c0.745-2.499,0.133-5.2-0.78-7.643
								c-1.983-5.302-5.483-9.99-9.875-13.563c-2.602-2.117-6.246-3.329-9.211-5.02c8.821,3.334,17.372,7.461,23.624,14.359
								C575.791,27.701,583.037,50.958,577.787,63.954z"/>
							<path style="fill:none;stroke:#450041;stroke-width:1.4818;stroke-miterlimit:10;" d="M585.368,79.83
								c-5.687-13.115-11.398-26.278-18.844-38.49c-6.125-10.046-22.306-31.337-30.546-39.754"/>
							<path style="fill:none;stroke:#450041;stroke-width:1.4818;stroke-miterlimit:10;" d="M573.512,54.32
								c-5.635-5.715-16.222-9.443-24.165-10.725"/>
							<path style="fill:none;stroke:#450041;stroke-width:1.4818;stroke-miterlimit:10;" d="M541.159,30.928
								c8.08-0.449,19.588,2.477,24.436,8.923c-1.953-6.218-1.633-17.887-1.068-24.377"/>
							<path style="fill:none;stroke:#450041;stroke-width:1.4818;stroke-miterlimit:10;" d="M573.037,53.714
								c-1.375-7.091,0.127-17.404,0.839-24.591"/>
						</g>
						<g>
							<path style="fill:#A25ADD;stroke:#450041;stroke-width:1.4818;stroke-miterlimit:10;" d="M619.638,44.679
								c-4.89-10.754-14.678-18.372-24.173-25.45c-2.093,7.421-4.199,14.923-4.525,22.623c-0.403,9.517,2.002,19.134,6.841,27.353
								c2.726,4.63,6.18,8.788,9.617,12.923c2.732,3.286,5.361,7.227,8.621,9.922C624.993,81.257,625.198,56.909,619.638,44.679z"/>
							<path style="fill:none;stroke:#450041;stroke-width:1.4818;stroke-miterlimit:10;" d="M618.389,109.467
								c-1.409-14.214-2.827-28.481-6.188-42.368c-2.765-11.423-11.252-36.433-16.529-46.944"/>
							<path style="fill:none;stroke:#450041;stroke-width:1.4818;stroke-miterlimit:10;" d="M614.765,79.757
								c-3.621-7.148-12.322-11.804-19.497-15.428"/>
							<path style="fill:none;stroke:#450041;stroke-width:1.4818;stroke-miterlimit:10;" d="M591.358,49.987
								c7.835,2.016,17.755,8.648,20.404,16.255c0.04-6.514,2.933-20.039,5.454-26.051"/>
							<path style="fill:none;stroke:#450041;stroke-width:1.4818;stroke-miterlimit:10;" d="M614.765,79.757
								c0.858-7.171,5.262-15.754,8.137-22.386"/>
						</g>
						<g>
							<path style="fill:#A25ADD;stroke:#450041;stroke-width:1.4818;stroke-miterlimit:10;" d="M563.505,100.144
								c-11.685,2.048-21.53,9.594-30.775,16.991c6.709,3.856,13.493,7.744,20.912,9.966c9.169,2.746,19.131,2.811,28.335,0.183
								c5.185-1.48,10.09-3.778,14.969-6.066c3.877-1.818,8.366-3.377,11.799-5.85C600.456,104.046,576.794,97.816,563.505,100.144z
								"/>
							<path style="fill:none;stroke:#450041;stroke-width:1.4818;stroke-miterlimit:10;" d="M626.293,117.399
								c-14.192-2.163-28.439-4.332-42.796-4.533c-11.81-0.166-23.638,1.008-35.182,3.49"/>
							<path style="fill:none;stroke:#450041;stroke-width:1.4818;stroke-miterlimit:10;" d="M598.266,113.862
								c-7.859,1.719-17.253,8.763-22.56,14.78"/>
							<path style="fill:none;stroke:#450041;stroke-width:1.4818;stroke-miterlimit:10;" d="M560.119,128.578
								c3.905-7.051,14.371-14.832,22.435-15.5c-6.335-1.652-18.047-8.019-23.277-11.939"/>
							<path style="fill:none;stroke:#450041;stroke-width:1.4818;stroke-miterlimit:10;" d="M597.498,113.941
								c-6.772-2.603-15.888-9.482-21.634-13.896"/>
						</g>
						<path style="fill:none;stroke:#450041;stroke-width:1.4818;stroke-miterlimit:10;" d="M533.879,52.511
							c-6.562-7.669-13.242-15.445-21.685-21.004c-11.502-7.573-28.59-15.765-42.158-13.296"/>
						<path style="fill:none;stroke:#450041;stroke-width:1.4818;stroke-miterlimit:10;" d="M540.677,55.028
							c-26.844-10.052-63.607-18.424-92.258-19.749"/>
						<path style="fill:none;stroke:#450041;stroke-width:1.4818;stroke-miterlimit:10;" d="M457.981,23.684
							c16.579-1.442,40.099,11.563,53.184,21.793c-16.234,5.433-41.888,6.358-58.33,1.58"/>
						<path style="fill:none;stroke:#450041;stroke-width:1.4818;stroke-miterlimit:10;" d="M532.215,51.766
							c-0.752,0.601-6.501,2.427-10.029,3.373c-16.712,4.484-39.49,8.06-56.166,3.448"/>
						<path style="fill:none;stroke:#450041;stroke-width:1.4818;stroke-miterlimit:10;" d="M555.588,76.111
							c-2.771-2.755-6.416-4.55-10.222-5.471c-3.807-0.921-10.273-2.442-14.176-2.093"/>
						<path style="fill:none;stroke:#450041;stroke-width:1.4818;stroke-miterlimit:10;" d="M542.457,77.489
							c-6.108-2.563-16.083-3.446-22.529-1.907"/>
						<path style="fill:none;stroke:#450041;stroke-width:1.4818;stroke-miterlimit:10;" d="M555.703,76.353
							c-2.489,5.82-9.367,13.181-15.336,15.358"/>
						<path style="fill:none;stroke:#450041;stroke-width:1.4818;stroke-miterlimit:10;" d="M542.457,77.489
							c-5.034,6.097-17.303,12.493-25.202,13.203"/>
					</g>
				</g>
			</g>
			<path style="opacity:0.56;fill:#C3337C;" d="M539.515,80.73c-0.027-12.293-14.419-5.436-20.525-5.904
				c1.826-1.135,3.688-2.206,5.651-3.095c1.232-0.558,2.305-1.373,3.087-2.367c2.643-1.012,5.39-1.737,7.986-2.157
				c8.883-1.435,18.266,0.439,25.904,5.173c1.046,0.648,2.162,1.514,2.254,2.737c0.076,1.012-0.585,1.919-1.241,2.698
				c-10.651,12.649-29.169,18.111-45.03,13.283c4.318-1.047,8.89-0.625,13.212-1.655C535.136,88.413,539.525,85.151,539.515,80.73z"
				/>
			<path style="opacity:0.56;fill:#C3337C;" d="M567.838,104.614c4.612,3.177,7.281,8.945,6.708,14.496
				c-0.477,4.616-3.642,9.3-8.256,9.977c15.015,0.766,29.062-6.713,42.208-13.971c-2.282-4.229-6.823-6.686-11.197-8.714
				c-4.517-2.094-9.147-3.995-13.978-5.211c-9.263-2.332-19.658-2.222-28.713,0.96C559.31,101.774,563.785,101.822,567.838,104.614z
				"/>
			<path style="opacity:0.56;fill:#C3337C;" d="M608.912,41.088c-1.708,3.879-6.714,5.816-10.732,4.418
				c-4.018-1.397-6.685-5.711-6.487-9.941c-1.656,5.609-0.679,11.617,0.406,17.363c0.73,3.868,1.519,7.775,3.225,11.327
				c1.559,3.246,3.834,6.091,6.089,8.903c4.573,5.704,9.146,11.408,13.72,17.113c0.215,0.268,0.453,0.551,0.785,0.64
				c0.688,0.184,1.257-0.529,1.598-1.152c5.711-10.436,7.511-22.932,4.978-34.543c-1.788-8.196-6.71-20.36-14.133-24.924
				C608.122,34.073,610.629,37.189,608.912,41.088z"/>
		</g>
		<g style="clip-path:url(#SVGID_00000154400302465900060950000012438317950654249356_);">
			<g>
				
					<text transform="matrix(1.0053 0 0 1 242.3164 317.4526)" style="fill:#FFDBCA; font-family:'MouseMemoirs-Regular'; font-size:205.099px;">YOGA</text>
				
					<text transform="matrix(1.0053 0 0 1 266.8535 162.1367)" style="fill:#FFDBCA; font-family:'MouseMemoirs-Regular'; font-size:37.7236px;">INTERNATIONAL DAY OF</text>
			</g>
			<g>
				
					<text transform="matrix(1.0053 0 0 1 255.0278 624.6084)" style="fill:#FFDBCA; font-family:'Poppins-SemiBold'; font-size:28.8114px;">DOORS OPEN AT 5 PM</text>
				
					<text transform="matrix(1.0053 0 0 1 255.0332 691.3789)" style="fill:#FFDBCA; font-family:'Poppins-SemiBold'; font-size:28.6453px;">LIVE MUSIC ALL NIGHT</text>
				<rect x="242.001" y="634.738" style="fill:none;" width="332.853" height="24.425"/>
				<text transform="matrix(1.0053 0 0 1 255.1851 641.1533)" style="opacity:0.8;"><tspan x="0" y="0" style="fill:#FFDBCA; font-family:'Poppins-Regular'; font-size:8.6709px;">Lorem ipsum dolor sit amet, consectetuer  Lorem ipsum dolor sit amet, </tspan><tspan x="8.649" y="10.405" style="fill:#FFDBCA; font-family:'Poppins-Regular'; font-size:8.6709px;">consectetuer adipiscing elit, sed diam Lorem ipsum dolor sit amet. </tspan></text>
				<rect x="306.317" y="699.969" style="fill:none;" width="204.221" height="16.866"/>
				
					<text transform="matrix(1.0053 0 0 1 332.3066 712.3877)" style="fill:#FFDBCA; font-family:'Poppins-Regular'; font-size:16.7809px;">www.website.com</text>
			</g>
			<g>
				<path style="fill:none;stroke:#FFDBCA;stroke-width:1.4818;stroke-miterlimit:10;" d="M297.638,499.521
					c10.445,0,10.445,12.304,20.89,12.304c10.443,0,10.443-12.304,20.887-12.304c10.444,0,10.444,12.304,20.888,12.304
					c10.442,0,10.442-12.304,20.883-12.304c10.442,0,10.442,12.304,20.883,12.304c10.444,0,10.444-12.304,20.889-12.304
					c10.448,0,10.448,12.304,20.896,12.304c10.445,0,10.445-12.304,20.889-12.304c10.452,0,10.452,12.304,20.904,12.304
					c10.452,0,10.452-12.304,20.904-12.304"/>
				<path style="fill:none;stroke:#FFDBCA;stroke-width:1.4818;stroke-miterlimit:10;" d="M297.638,372.199
					c10.445,0,10.445,11.914,20.89,11.914c10.443,0,10.443-11.914,20.887-11.914c10.444,0,10.444,11.914,20.888,11.914
					c10.442,0,10.442-11.914,20.883-11.914c10.442,0,10.442,11.914,20.883,11.914c10.444,0,10.444-11.914,20.889-11.914
					c10.448,0,10.448,11.914,20.896,11.914c10.445,0,10.445-11.914,20.889-11.914c10.452,0,10.452,11.914,20.904,11.914
					c10.452,0,10.452-11.914,20.904-11.914"/>
				
					<text transform="matrix(1.0053 0 0 1 267.4644 435.1797)" style="fill:#372970; font-family:'Poppins-Bold'; font-size:40.1544px;">MEDITATION &amp;</text>
				
					<text transform="matrix(1.0053 0 0 1 274.2832 470.6064)" style="fill:#372970; font-family:'Poppins-Bold'; font-size:40.1544px;">MINDFULNESS</text>
			</g>
		</g>
		<g style="clip-path:url(#SVGID_00000154400302465900060950000012438317950654249356_);">
			<g>
				<path style="fill:#FFFFD6;stroke:#450041;stroke-width:1.4818;stroke-miterlimit:10;" d="M88.778,42.46
					c0,0,91.083-9.653,113.568,90.147C202.346,132.607,129.785,124.127,88.778,42.46z"/>
				<path style="fill:#FFFFD6;stroke:#450041;stroke-width:1.4818;stroke-miterlimit:10;" d="M62.022,27.169
					c0,0,24.455,1.058,28.333,53.103c3.878,52.045,22.933,74.853,22.933,74.853S24.498,138.486,62.022,27.169z"/>
				<path style="fill:#FFFFD6;stroke:#450041;stroke-width:1.4818;stroke-miterlimit:10;" d="M36.542,13.699
					c0,0-24.439-1.377-27.629-53.469c-3.19-52.091-21.942-75.146-21.942-75.146S75.534-97.118,36.542,13.699z"/>
				<path style="fill:#FFFFD6;stroke:#450041;stroke-width:1.4818;stroke-miterlimit:10;" d="M33.838,12.769
					c0,0,11.66,21.41-31.221,51.475c-42.882,30.065-52.751,58.05-52.751,58.05S-81.434,37.981,33.838,12.769z"/>
				<path style="fill:#FFFFD6;stroke:#450041;stroke-width:1.4818;stroke-miterlimit:10;" d="M62.097,27.015
					c0,0,29.839,17.323,49.066-1.358C130.391,6.976,173.699,4.89,173.699,4.89S97.881-37.48,62.097,27.015z"/>
				<path style="fill:#FFFFD6;stroke:#450041;stroke-width:1.4818;stroke-miterlimit:10;" d="M52.436,21.764
					c0,0-17.734,38.254-7.039,77.52c0,0-23.506-1.127-28.234-28.549C12.435,43.313,52.436,21.764,52.436,21.764z"/>
				<path style="fill:#FFFFD6;stroke:#450041;stroke-width:1.4818;stroke-miterlimit:10;" d="M52.435,21.758
					c0,0-14.999-38.957,9.296-58.91c24.294-19.952,43.347-2.456,43.347-2.456S58.421-12.904,52.435,21.758z"/>
				<path style="fill:none;stroke:#450041;stroke-width:1.4818;stroke-miterlimit:10;" d="M102.413,50.268
					c0,0-46.961-33.8-134.195-62.466"/>
			</g>
			<path style="fill:none;stroke:#450041;stroke-width:1.4818;stroke-miterlimit:10;" d="M140.99,2.167
				c-13.485-3.267-27.455,2.484-39.548,9.259c-12.093,6.775-23.305,14.605-37.036,16.616c6.541,10.188,8.597,22.576,9.381,34.64
				c0.784,12.064,0.451,24.267,2.837,36.121c2.286,11.359,7.079,22.213,13.943,31.572"/>
			<path style="fill:none;stroke:#450041;stroke-width:1.4818;stroke-miterlimit:10;" d="M78.889-33.258
				C62.976-19.344,53.428,1.902,51.68,22.906c-10.87,14.591-17.121,32.537-17.656,50.69"/>
			<path style="fill:none;stroke:#450041;stroke-width:1.4818;stroke-miterlimit:10;" d="M-31.15,80.34
				c4.345-15.961,14.131-30.405,27.373-40.401c12.751-9.626,26.624-15.595,37.615-27.171C27.565-0.148,34.209-16.696,33.7-31.033
				c-0.565-15.907-9.124-30.335-13.1-45.753"/>
			<path style="fill:none;stroke:#450041;stroke-width:1.4818;stroke-miterlimit:10;" d="M172.161,107.09
				c-24.792-25.372-53.017-47.42-83.673-65.363"/>
		</g>
		<g style="clip-path:url(#SVGID_00000154400302465900060950000012438317950654249356_);">
			<g>
				<path style="fill:#FFFFD6;stroke:#450041;stroke-width:1.3026;stroke-miterlimit:10;" d="M212.79,661.676
					c-11.755,3.498-14.605,6.334-18.121,18.027c-3.516-11.693-6.367-14.529-18.122-18.027c11.755-3.498,14.605-6.334,18.122-18.027
					C198.185,655.342,201.036,658.178,212.79,661.676z"/>
				<path style="fill:#FFFFD6;stroke:#450041;stroke-width:1.3026;stroke-miterlimit:10;" d="M212.79,661.676
					c-11.755,3.498-14.605,6.334-18.121,18.027c-3.516-11.693-6.367-14.529-18.122-18.027c11.755-3.498,14.605-6.334,18.122-18.027
					C198.185,655.342,201.036,658.178,212.79,661.676z"/>
			</g>
			<g>
				<path style="fill:#FFFFD6;stroke:#450041;stroke-width:1.3026;stroke-miterlimit:10;" d="M45.409,726.996
					c-11.755,3.498-14.605,6.334-18.122,18.027c-3.516-11.693-6.367-14.529-18.121-18.027c11.754-3.498,14.605-6.334,18.121-18.027
					C30.804,720.663,33.655,723.498,45.409,726.996z"/>
				<path style="fill:#FFFFD6;stroke:#450041;stroke-width:1.3026;stroke-miterlimit:10;" d="M45.409,726.996
					c-11.755,3.498-14.605,6.334-18.122,18.027c-3.516-11.693-6.367-14.529-18.121-18.027c11.754-3.498,14.605-6.334,18.121-18.027
					C30.804,720.663,33.655,723.498,45.409,726.996z"/>
			</g>
			<g>
				<path style="fill:#FFFFD6;stroke:#450041;stroke-width:1.3026;stroke-miterlimit:10;" d="M184.833,177.374
					c-11.754,3.498-14.605,6.334-18.121,18.027c-3.516-11.693-6.367-14.529-18.122-18.027c11.755-3.498,14.605-6.334,18.122-18.027
					C170.228,171.04,173.078,173.876,184.833,177.374z"/>
				<path style="fill:#FFFFD6;stroke:#450041;stroke-width:1.3026;stroke-miterlimit:10;" d="M184.833,177.374
					c-11.754,3.498-14.605,6.334-18.121,18.027c-3.516-11.693-6.367-14.529-18.122-18.027c11.755-3.498,14.605-6.334,18.122-18.027
					C170.228,171.04,173.078,173.876,184.833,177.374z"/>
			</g>
			<g>
				<path style="fill:#FFFFD6;stroke:#450041;stroke-width:1.3026;stroke-miterlimit:10;" d="M411.06,33.111
					c-11.754,3.498-14.605,6.334-18.121,18.027c-3.516-11.693-6.367-14.529-18.121-18.027c11.754-3.498,14.605-6.334,18.121-18.027
					C396.455,26.777,399.306,29.613,411.06,33.111z"/>
			</g>
		</g>
	</g>
</g>
</svg>
